# xmcd
#
# Track frame offsets:
#	150
#	10475
#	22362
#	36212
#	50162
#	63950
#	76012
#	90575
#	103425
#	118187
#	130200
#	141450
#	153225
#	165325
#	182162
#	200062
#
# Disc length: 2799 seconds
#
# Revision: 2
# Processed by: cddbd v1.5PL3 Copyright (c) Steve Scherf et al.
# Submitted via: MusicManager 7.0.4.0 
#
DISCID=e60aed10
DTITLE=Jimmie Rodgers - Kisses Sweeter Than Wine
DYEAR=1987
DGENRE=
TTITLE0=Kisses Sweeter Than Wine
TTITLE1=A Good Woman Likes To Drink With The Boys
TTITLE2=Hold Back The World
TTITLE3=Everytime I Sing A Love Song
TTITLE4=Everybody Needs Love
TTITLE5=It's My Time
TTITLE6=Dancing On The Moon
TTITLE7=When Our Love Began
TTITLE8=Shoveling Coal Missouri
TTITLE9=Just A Closer Walk With Thee
TTITLE10=Waltzing Matilda
TTITLE11=The World I Used To Know
TTITLE12=It's Over
TTITLE13=I Have You
TTITLE14=Just A Little Time To Say Goodbye
TTITLE15=Honeycomb
EXTD=
EXTT0=
EXTT1=
EXTT2=
EXTT3=
EXTT4=
EXTT5=
EXTT6=
EXTT7=
EXTT8=
EXTT9=
EXTT10=
EXTT11=
EXTT12=
EXTT13=
EXTT14=
EXTT15=
PLAYORDER=
